<?xml version="1.0" encoding="utf-8"?>
<svg x="0pt" y="0pt" width="600pt" height="800pt" viewBox="0 0 600 800" xmlns="http://www.w3.org/2000/svg" xmlns:xlink="http://www.w3.org/1999/xlink">
  <g id="Layer 1">
    <path id="Path 231" style="fill:#000000;fill-opacity:1;fill-rule:nonzero;opacity:1;stroke:#000000;stroke-linecap:butt;stroke-linejoin:miter;stroke-miterlimit:10;stroke-opacity:1;stroke-width:0;" d="M130.789,108.805 C135.954,102.772,140.592,96.5508,146.087,91.3329 C152.191,85.5363,159.002,80.5484,165.637,75.3973 C178.238,65.6151,192.464,59.3188,207.539,55.5529 C216.857,53.2253,226.533,51.4342,236.069,51.3211 C275.268,50.8562,314.477,50.9269,353.679,51.2284 C368.58,51.343,383.04,54.8785,396.897,60.7272 C402.731,63.19,408.745,65.5429,414.014,69.0538 C422.859,74.9475,431.693,81.0967,439.56,88.3163 C447.052,95.1915,453.809,103.149,459.984,111.386 C471.101,126.215,478.651,143.139,482.971,161.478 C485.911,173.961,480.056,188.609,468.062,191.984 C465.574,192.684,462.974,193.338,460.426,193.34 C349.965,193.405,239.504,193.455,129.043,193.309 C116.349,193.292,107.813,185.118,106.041,171.619 C104.805,162.204,108.249,153.976,111.235,145.707 C113.91,138.3,117.304,131.129,120.942,124.181 C123.72,118.876,127.375,114.081,130.789,108.805 z"/>
    <path id="Path 232" style="fill:#000000;fill-opacity:1;fill-rule:nonzero;opacity:1;stroke:#000000;stroke-linecap:butt;stroke-linejoin:miter;stroke-miterlimit:10;stroke-opacity:1;stroke-width:0;" d="M461.665,325.912 C470.195,330.173,477.941,335.15,482.598,343.811 C484.767,347.843,486.682,352.242,487.65,356.73 C489.452,365.094,488.979,373.634,486.527,381.821 C485.088,386.626,482.325,390.746,479.342,394.848 C475.818,399.694,471.399,403.114,466.613,405.801 C462.62,408.043,457.818,409.848,453.371,409.857 C345.587,410.075,237.801,410.011,130.017,410.062 C122.89,410.066,116.705,407.067,111.101,403.21 C102.397,397.219,95.6428,388.464,94.3107,377.784 C92.874,366.264,92.1461,354.193,99.5795,343.425 C105.168,335.329,111.792,329.088,120.554,325.869 C125.732,323.967,131.431,323.046,136.933,322.85 C149.176,322.412,161.467,322.195,173.688,322.888 C181.493,323.331,188.278,327.16,193.697,333.642 C199.152,340.167,201.232,347.584,201.211,356.06 C201.198,361.344,206.458,365.64,212.258,365.561 C216.635,365.501,221.008,360.651,221.069,355.628 C221.139,349.973,220.9,344.308,221.124,338.661 C221.536,328.285,232.988,319.26,243.07,323.75 C250.51,327.064,254.164,333.009,254.06,341.605 C253.953,350.493,254.025,359.382,254.035,368.271 C254.046,377.155,262.035,382.624,269.35,378.358 C272.095,376.756,274.064,373.867,274.051,369.823 C274.027,362.471,274.05,355.063,274.854,347.778 C275.78,339.396,280.429,333.084,286.959,328.387 C292.919,324.1,299.588,322.658,306.776,322.672 C353.376,322.765,399.976,322.616,446.575,322.845 C451.505,322.869,456.426,324.833,461.665,325.912 z"/>
    <path id="Path 233" style="fill:#000000;fill-opacity:1;fill-rule:nonzero;opacity:1;stroke:#000000;stroke-linecap:butt;stroke-linejoin:miter;stroke-miterlimit:10;stroke-opacity:1;stroke-width:0;" d="M373.601,300.093 C292.361,300.093,211.504,300.19,130.648,299.982 C119.274,299.952,110.478,294.339,103.963,283.939 C98.8308,275.745,97.4913,267.178,97.6445,257.814 C97.8273,246.638,98.1242,235.431,97.5633,224.283 C97.0693,214.466,102.836,209.642,111.479,211.332 C119.919,212.983,128.466,215.183,136.322,218.729 C147.409,223.733,157.402,230.993,166.018,240.059 C170.682,244.965,174.992,250.248,179.69,255.116 C181.718,257.216,184.176,258.993,186.702,260.388 C191.205,262.874,195.728,261.714,200.038,259.507 C210.379,254.209,220.729,248.928,231.004,243.49 C239.83,238.819,248.484,233.783,257.348,229.196 C266.275,224.577,275.16,219.724,284.456,216.09 C291.091,213.497,298.319,212.311,305.387,211.321 C310.636,210.586,316.118,210.621,321.378,211.314 C327.845,212.167,333.223,218.33,333.654,225.244 C334.276,235.237,334.28,245.274,334.516,255.292 C334.6,258.838,336.048,261.481,339.006,263.156 C341.849,264.766,344.815,263.85,346.473,261.698 C348.225,259.423,349.545,256.158,349.695,253.248 C350.118,245.055,349.783,236.82,349.859,228.603 C349.93,221.021,353.119,215.16,359.674,212.069 C367.505,208.375,377.523,211.248,382.281,220.211 C386.237,227.662,384.522,235.166,385.074,242.664 C385.378,246.796,385.105,250.976,385.093,255.134 C385.079,260.327,387.671,263.579,391.933,263.718 C395.74,263.843,399.577,259.715,399.628,255.121 C399.725,246.5,399.95,237.864,399.585,229.26 C399.136,218.686,407.454,210.676,416.89,210.447 C429.784,210.135,442.74,209.622,455.576,210.579 C468.965,211.577,477.094,217.22,482.957,232.168 C484.667,236.527,485.241,241.607,485.359,246.384 C485.553,254.236,486.037,262.362,484.46,269.923 C480.938,286.814,470.524,299.88,451.008,300.041 C425.335,300.252,399.659,300.093,373.601,300.093 z"/>
    <path id="Compound Group" style="fill:#000000;fill-opacity:1;fill-rule:evenodd;opacity:1;stroke:#000000;stroke-linecap:butt;stroke-linejoin:miter;stroke-miterlimit:10;stroke-opacity:1;stroke-width:0;" d="M241.76,717.804 C241.759,712.979,241.783,708.534,241.767,704.09 C241.749,699.314,238.674,696.07,234.289,696.154 C230.267,696.231,227.241,699.644,227.24,704.115 C227.239,708.289,227.237,712.463,227.25,716.636 C227.282,726.832,220.726,731.329,212.468,729.034 C202.022,726.131,198.343,720.691,198.268,710.149 C198.118,689.182,187.999,675.289,171.551,665.626 C163.828,661.089,155.574,657.573,147.686,653.333 C135.939,647.018,123.806,641.286,112.774,633.776 C103.394,627.389,97.7716,617.261,97.7356,604.964 C97.5969,557.549,97.6238,510.132,97.72,462.716 C97.7561,444.912,113.055,427.668,130.805,427.703 C238.476,427.916,346.148,427.772,453.819,427.873 C463.212,427.882,470.808,432.655,476.683,440.2 C482.614,447.817,484.833,456.711,484.8,466.585 C484.649,512.25,484.79,557.916,484.688,603.582 C484.665,613.473,481.406,622.069,474.911,629.539 C468.866,636.491,460.752,639.466,453.235,643.591 C436.876,652.57,420.152,660.839,404.053,670.299 C396.337,674.834,392.092,683.325,388.065,691.582 C384.402,699.094,384.578,707.293,383.601,715.283 C382.073,727.786,365.965,733.231,359.662,727.008 C357.826,725.195,356.444,722.149,356.132,719.5 C355.57,714.724,355.997,709.822,355.967,704.973 C355.933,699.478,352.982,696.257,347.987,696.194 C343.731,696.141,340.782,699.669,340.63,704.798 C340.451,710.794,340.532,716.839,339.782,722.761 C339.265,726.843,335.624,729.261,331.786,729.314 C330.637,729.33,329.483,729.25,328.338,729.327 C321.01,729.823,317.952,724.396,317.691,718.463 C317.497,714.028,317.639,709.576,317.648,705.132 C317.66,699.553,315.193,696.327,310.787,696.189 C306.029,696.041,302.438,699.783,302.341,705.158 C302.257,709.871,302.047,714.61,302.397,719.296 C302.792,724.571,298.095,729.745,292.781,729.4 C287.807,729.078,282.801,729.361,280.753,723.142 C280.319,721.824,280.191,720.359,280.117,718.95 C279.82,713.245,280.029,707.466,279.208,701.852 C278.589,697.623,275.088,695.604,271.476,696.153 C267.255,696.794,264.879,699.736,264.751,704.209 C264.584,710.076,264.798,716.026,263.908,721.778 C263.038,727.402,259.993,729.353,254.53,729.292 C252.542,729.269,250.434,729.352,248.593,728.71 C243.913,727.077,241.469,723.55,241.76,717.804 z M302.595,639.592 C310.904,641.049,318.933,632.823,314.413,622.393 C310.211,612.694,305.553,603.181,300.56,593.907 C296.644,586.631,286.308,586.489,282.408,593.767 C277.189,603.503,272.361,613.533,268.17,623.802 C264.827,631.994,271.002,639.746,278.863,639.619 C286.525,639.494,294.191,639.592,302.595,639.592 z M193.643,465.912 C226.846,465.912,253.762,492.828,253.762,526.03 C253.762,559.233,226.846,586.149,193.643,586.149 C160.441,586.149,133.524,559.233,133.524,526.03 C133.524,492.828,160.441,465.912,193.643,465.912 z M392.872,465.912 C426.074,465.912,452.99,492.828,452.99,526.03 C452.99,559.233,426.074,586.149,392.872,586.149 C359.669,586.149,332.753,559.233,332.753,526.03 C332.753,492.828,359.669,465.912,392.872,465.912 z"/>
  </g>
</svg>
